PathFileType	4	(X/Y/Z)	C:/Users/beibeiliu/ov580/test_trc/User1\sequence.24_training_dense_left.trc
DataRate	CameraRate	NumFrames	NumMarkers	Units	OrigDataRate	OrigDataStartFrame	OrigNumFrames
120	120	7	19	mm	120	152	177
Frame#	Time	ThumbCMC			ThumbMCP			ThumbIP			ThumbTip			IndexMCP			IndexPIP			IndexTip			MiddleMCP			MiddlePIP			MiddleTip			RingMCP			RingPIP			RingTip			PinkyMCP			PinkyPIP			PinkyTip			BackHand1			BackHand2			BackHand3	
		X0	Y0	Z0	X1	Y1	Z1	X2	Y2	Z2	X3	Y3	Z3	X4	Y4	Z4	X5	Y5	Z5	X6	Y6	Z6	X7	Y7	Z7	X8	Y8	Z8	X9	Y9	Z9	X10	Y10	Z10	X11	Y11	Z11	X12	Y12	Z12	X13	Y13	Z13	X14	Y14	Z14	X15	Y15	Z15	X16	Y16	Z16	X17	Y17	Z17	X18	Y18	Z18	
151	1.25833	-211.498	47.243	42.1256	-196.807	47.7735	8.69579	-187.05	35.3497	-19.9878	-168.746	18.8001	-30.2206	-216.304	-1.37078	-23.3087	-212.039	-11.1724	-46.4586	-204.351	-26.3583	-68.9786	-186.681	-5.22831	-29.3378	-169.916	7.42935	-54.8424	-148.647	28.5163	-71.6806	-159.446	4.37191	-17.2694	-145.647	33.3779	-9.27755	-149.159	44.8952	18.2256	-147.162	-4.38424	-0.969228	-138.555	22.7424	5.20309	-153.083	34.7875	30.2313	-188.492	-22.3269	35.9092	-190.251	-12.6519	72.0789	-216.202	3.161	45.2701	
152	1.26667	-210.371	46.1225	43.3801	-197.63	51.8658	9.96278	-188.922	38.1217	-17.3977	-171.277	21.233	-32.0422	-218.148	-1.85077	-25.646	-215.141	-11.2702	-48.2341	-207.665	-25.4308	-66.8146	-187.969	-5.61364	-31.1489	-174.525	7.70175	-55.1137	-152.024	25.1608	-71.4745	-163.33	1.86511	-16.0873	-146.121	30.7941	-11.8416	-150.772	44.5717	21.2622	-144.548	-7.2537	-0.0941685	-142.125	22.5169	3.18735	-155.589	33.5836	28.7945	-188.111	-19.6484	39.0481	-193.057	-10.7101	72.941	-216.267	4.41014	49.1949	
153	1.275	-208.731	44.5644	44.5331	-200.002	51.3361	6.91484	-189.619	33.8054	-15.7114	-172.623	20.8154	-31.1498	-216.054	-3.90494	-21.2823	-215.767	-14.9796	-48.8101	-206.916	-29.8416	-68.5632	-190.463	-5.13399	-34.4071	-174.26	4.86388	-55.0145	-156.151	25.1348	-73.7937	-161.251	-2.00952	-14.994	-145.743	32.104	-11.8253	-150.939	45.432	14.9445	-149.053	-6.67089	-0.920321	-139.838	22.4402	3.72667	-153.632	34.6543	27.2961	-186.547	-22.0629	35.8603	-189.657	-11.5681	75.083	-216.459	3.97161	51.0718	
154	1.28333	-208.158	44.1927	43.7803	-200.045	49.7138	3.8677	-189.768	31.8858	-21.6507	-172.555	15.13	-29.3162	-219.977	-5.98454	-26.3509	-213.887	-17.4847	-45.8984	-208.911	-30.2284	-65.5415	-189.256	-8.59077	-31.6436	-177.288	4.38249	-55.945	-155.813	23.5259	-76.2039	-166.6	-1.41331	-16.168	-145.514	29.9318	-11.4997	-149.842	43.7636	15.9935	-147.749	-10.5135	-0.391501	-143.193	20.8947	0.0698561	-152.236	33.5427	24.0102	-189.613	-20.2596	37.667	-188.785	-10.45	75.1587	-216.765	5.66297	47.1986	
155	1.29167	-207.089	45.9699	45.8799	-197.178	44.4963	6.77924	-189.016	31.5548	-19.1544	-171.993	11.4866	-34.1138	-222.105	-3.69721	-23.0447	-219.766	-16.9744	-46.7041	-213.692	-32.203	-66.7911	-192.574	-9.31322	-31.5513	-177.115	5.27463	-58.1886	-156.665	18.9729	-74.7514	-166.677	-1.9621	-17.0796	-145.625	25.8197	-14.5321	-149.765	43.3199	14.7317	-149.153	-8.96663	-3.02426	-140.486	17.582	0.553914	-152.737	34.2177	23.7755	-191.573	-21.2531	38.042	-191.921	-10.9991	75.9674	-215.74	3.1714	51.871	
156	1.3	-207.705	44.3278	43.2324	-197.713	44.4745	7.8771	-190.036	29.613	-20.3018	-172.649	13.8636	-35.6994	-219.108	-8.89207	-23.3342	-218.069	-19.4024	-43.3545	-214.871	-33.5442	-64.226	-191.074	-11.8741	-32.9716	-177.941	-0.316094	-55.5872	-155.464	15.8727	-75.4281	-162.283	-4.55615	-17.2836	-149.471	27.2365	-14.2118	-149.621	41.5359	16.0212	-153.319	-13.3989	-0.119423	-143.373	14.0762	-1.20225	-151.262	33.2157	24.9418	-190.529	-22.5351	37.4235	-192.026	-11.1005	73.1793	-215.457	1.99474	48.1484	
157	1.30833	-208.578	47.0471	45.7722	-197.093	47.4251	9.0247	-190.166	29.5326	-19.5468	-173.967	10.1995	-30.9664	-224.803	-6.38842	-22.0645	-221.07	-17.67	-41.9	-220.073	-34.7067	-64.0406	-194.123	-13.8822	-28.4051	-181.354	-0.62986	-55.8967	-156.442	14.8786	-76.565	-163.766	-7.03178	-14.9927	-150.101	23.9541	-13.9456	-150.274	39.6435	16.8056	-151.192	-14.3064	-1.43521	-143.926	13.2812	-1.11593	-157.513	29.2559	23.4558	-189.829	-25.5284	38.0344	-190.152	-13.8123	74.5047	-218.731	5.89981	51.1821	
